<svg width="560" height="573" viewBox="0 0 560 573" fill="none" xmlns="http://www.w3.org/2000/svg">
<circle cx="274" cy="296" r="183" fill="white"/>
<rect x="223" width="105" height="138" rx="6" fill="white"/>
<path d="M176.3 215.8L213.2 178.9L171.6 152.6L138.8 185.4L164.2 227.9L176.3 215.8Z" fill="#08141A"/>
<path d="M273.6 380.2C224.4 380.2 184.4 340.2 184.4 291C184.4 262.9 197.5 237.8 217.8 221.5V210.3C192.2 228 175.4 257.6 175.4 291C175.4 345.1 219.4 389.2 273.6 389.2C327.8 389.2 371.8 345.2 371.8 291C371.8 260.2 357.5 232.6 335.2 214.6V226.6C352.2 242.8 362.8 265.7 362.8 291C362.8 340.2 322.8 380.2 273.6 380.2Z" fill="#08141A"/>
<path d="M446.3 320.4V274.1L404.8 263.7C402.1 251.5 397.6 239.6 391.4 228.4L415 190.9L382.2 158L345.3 180.1C342 178.1 338.6 176.1 335.2 174.4V199.9C341.7 204.1 347.8 209 353.5 214.7C396.6 257.7 396.6 327.8 353.5 370.8C310.5 413.9 240.4 413.9 197.3 370.8C154.3 327.8 154.3 257.7 197.3 214.7C203.6 208.4 210.5 203 217.8 198.5V173.3C204.7 179.6 192.4 188.2 181.6 199C165.2 215.4 154 235.2 148 256.1L102 266.5V312.8L146.5 324C149.1 335 153.2 345.7 158.7 355.9L133.3 396.1L166.1 428.9L205.3 405.5C215.2 411.7 225.8 416.4 236.8 419.7L247.2 465.6H293.5L304.4 422.2C316 419.6 327.3 415.5 338 409.8L376.8 434.3L409.6 401.5L387.3 364.2C394.1 353.6 399.2 342.2 402.7 330.4L446.3 320.4Z" fill="#08141A"/>
<path d="M278.2 368.4V336.1C278.2 336.1 286.5 322.1 302.5 316.1C318.5 310.1 321.8 292.1 321.8 292.1C321.8 292.1 324.5 364.1 278.2 368.4Z" fill="#DC9932"/>
<path d="M271 368.4V336.1C271 336.1 262.7 322.1 246.7 316.1C230.7 310.1 227.4 292.1 227.4 292.1C227.4 292.1 224.7 364.1 271 368.4Z" fill="#DC9932"/>
<path d="M278.2 319.1V286.8C278.2 286.8 286.5 272.8 302.5 266.8C318.5 260.8 321.8 242.8 321.8 242.8C321.8 242.8 324.5 314.7 278.2 319.1Z" fill="#DC9932"/>
<path d="M271 319.1V286.8C271 286.8 262.7 272.8 246.7 266.8C230.7 260.8 227.4 242.8 227.4 242.8C227.4 242.8 224.7 314.7 271 319.1Z" fill="#DC9932"/>
<path d="M278.2 270.5V238.2C278.2 238.2 286.5 224.2 302.5 218.2C318.5 212.2 321.8 194.2 321.8 194.2C321.8 194.2 324.5 266.2 278.2 270.5Z" fill="#DC9932"/>
<path d="M271 270.5V238.2C271 238.2 262.7 224.2 246.7 218.2C230.7 212.2 227.4 194.2 227.4 194.2C227.4 194.2 224.7 266.2 271 270.5Z" fill="#DC9932"/>
<path d="M278.2 220.6V188.3C278.2 188.3 286.5 174.3 302.5 168.3C318.5 162.3 321.8 144.3 321.8 144.3C321.8 144.3 324.5 216.2 278.2 220.6Z" fill="#DC9932"/>
<path d="M271 220.6V188.3C271 188.3 262.7 174.3 246.7 168.3C230.7 162.3 227.4 144.3 227.4 144.3C227.4 144.3 224.7 216.2 271 220.6Z" fill="#DC9932"/>
<path d="M275.7 165.4C275.7 165.4 275.6 165.4 275.7 165.4C275.6 165.4 275.6 165.4 275.7 165.4C275.6 165.4 275.6 165.4 275.6 165.4C273.2 164.7 241.4 154.8 259.4 112.4C271.6 83.7 274.8 70.1 275.6 64.2C275.6 64 275.6 63.9 275.7 63.7C275.7 63.9 275.7 64 275.8 64.2C276.6 70.1 279.8 83.7 292 112.4C309.8 154.8 278.1 164.7 275.7 165.4Z" fill="#DC9932"/>
<path d="M275.5 14.1C275.3 11.8 275.5 11.1 275.5 11.1V14.1Z" fill="#DC9932"/>
<path d="M275.5 15.2V14C275.5 14.2 275.5 14.4 275.6 14.7C275.6 14.9 275.6 15.1 275.5 15.2Z" fill="#DC9932"/>
<path d="M275.6 14.7C275.6 14.5 275.6 14.2 275.7 14V15.2C275.6 15.1 275.6 14.9 275.6 14.7Z" fill="#DC9932"/>
<path d="M275.7 14.1V11.1C275.7 11.1 275.9 11.8 275.7 14.1Z" fill="#DC9932"/>
<path d="M309.9 126.4C307.1 126.4 304.9 124.2 304.9 121.4V14.1C304.9 11.3 307.1 9.09998 309.9 9.09998C312.7 9.09998 314.9 11.3 314.9 14.1V121.4C314.9 124.2 312.6 126.4 309.9 126.4Z" fill="#DC9932"/>
<path d="M240.5 126.4C237.7 126.4 235.5 124.2 235.5 121.4V14.1C235.5 11.3 237.7 9.09998 240.5 9.09998C243.3 9.09998 245.5 11.3 245.5 14.1V121.4C245.5 124.2 243.3 126.4 240.5 126.4Z" fill="#DC9932"/>
<path d="M275.5 59.7C272.7 59.7 270.5 57.5 270.5 54.7V14C270.5 11.2 272.7 9 275.5 9C278.3 9 280.5 11.2 280.5 14V54.7C280.5 57.5 278.3 59.7 275.5 59.7Z" fill="#DC9932"/>
</svg>
